<svg width="951" height="501" viewBox="0 0 951 501" fill="none" xmlns="http://www.w3.org/2000/svg">
<path d="M938.5 480C938.5 506.771 936.251 533.008 931.934 558.535L793.779 420.379C688.182 314.782 516.976 314.783 411.379 420.379C305.783 525.976 305.783 697.182 411.379 802.778L549.535 940.934C524.008 945.251 497.771 947.5 471 947.5C212.807 947.5 3.5 738.193 3.5 480C3.5 221.807 212.807 12.5 471 12.5C729.193 12.5 938.5 221.807 938.5 480ZM730.098 488.973L886.575 645.45C955.643 714.518 955.643 826.499 886.575 895.567C817.507 964.636 705.526 964.636 636.458 895.567L479.98 739.09C410.912 670.022 410.912 558.041 479.98 488.972C549.048 419.904 661.03 419.904 730.098 488.973Z" stroke="#DCDCDC" stroke-width="25"/>
</svg>
