<svg width="71" height="71" viewBox="0 0 71 71" fill="none" xmlns="http://www.w3.org/2000/svg">
<path d="M70.1647 43.1905C70.7117 40.7142 71 38.1408 71 35.5C71 15.8939 55.1061 0 35.5 0C15.8939 0 0 15.8939 0 35.5C0 55.1061 15.8939 71 35.5 71C38.1408 71 40.7142 70.7117 43.1905 70.1647L31.7443 58.7184C24.2955 51.2697 24.2955 39.193 31.7443 31.7442C39.193 24.2955 51.2697 24.2955 58.7185 31.7442L70.1647 43.1905Z" fill="url(#paint0_angular_109_137)"/>
<path d="M35.5105 35.5099C40.9797 30.0407 49.847 30.0407 55.3162 35.5099L66.889 47.0827C72.3581 52.5519 72.3582 61.4192 66.889 66.8884C61.4198 72.3576 52.5525 72.3576 47.0833 66.8884L35.5105 55.3156C30.0413 49.8464 30.0413 40.9791 35.5105 35.5099Z" fill="url(#paint1_linear_109_137)"/>
<defs>
<radialGradient id="paint0_angular_109_137" cx="0" cy="0" r="1" gradientUnits="userSpaceOnUse" gradientTransform="translate(35.5 35.5) rotate(44.4327) scale(36.2208)">
<stop offset="0.078125" stop-color="#D6D6D6"/>
<stop offset="0.609375" stop-color="#919191"/>
<stop offset="0.917662" stop-color="#585858"/>
</radialGradient>
<linearGradient id="paint1_linear_109_137" x1="50.7145" y1="69.9857" x2="75.0576" y2="23.8357" gradientUnits="userSpaceOnUse">
<stop stop-color="#004593"/>
<stop offset="1" stop-color="#000E33"/>
</linearGradient>
</defs>
</svg>
